<mxfile host="app.diagrams.net" modified="2024-05-28T04:58:04.498Z" agent="Mozilla/5.0 (Windows NT 10.0; Win64; x64) AppleWebKit/537.36 (KHTML, like Gecko) Chrome/125.0.0.0 Safari/537.36" version="24.4.9" etag="dow2xqbzjeB7sTtve6jH" type="github">
  <diagram name="Halaman-1" id="nd4GUK1Nv1EDLZ3BnNvm">
    <mxGraphModel>
      <root>
        <mxCell id="0" />
        <mxCell id="1" parent="0" />
      </root>
    </mxGraphModel>
  </diagram>
</mxfile>
